<svg viewBox="0 0 29 28" fill="none" xmlns="http://www.w3.org/2000/svg">
<g id="Group">
<g id="Group_2">
<path id="Path" fill-rule="evenodd" clip-rule="evenodd" d="M23.8332 18.0833H21.4998C20.2107 18.0833 19.1665 17.0392 19.1665 15.75V15.75C19.1665 14.4608 20.2107 13.4167 21.4998 13.4167H23.8332C24.4772 13.4167 24.9998 13.9393 24.9998 14.5833V16.9167C24.9998 17.5607 24.4772 18.0833 23.8332 18.0833Z" stroke="currentColor" stroke-width="1.5" stroke-linecap="round" stroke-linejoin="round"/>
<path id="Path_2" d="M23.8333 13.4167V9.91668C23.8333 8.62751 22.7892 7.58334 21.5 7.58334L5.75 7.58334C4.784 7.58334 4 6.79934 4 5.83334V5.83334C4 4.86734 4.784 4.08334 5.75 4.08334L20.3333 4.08334" stroke="currentColor" stroke-width="1.5" stroke-linecap="round" stroke-linejoin="round"/>
<path id="Path_3" d="M23.8333 18.0833V21.5833C23.8333 22.8725 22.7892 23.9167 21.5 23.9167L6.33333 23.9167C5.04417 23.9167 4 22.8725 4 21.5833L4 5.83334" stroke="currentColor" stroke-width="1.5" stroke-linecap="round" stroke-linejoin="round"/>
</g>
</g>
</svg>
