<svg viewBox="0 0 24 24" fill="none" xmlns="http://www.w3.org/2000/svg">
<path d="M9.50928 18.0025V18.5147C9.50928 19.1752 9.77179 19.8086 10.239 20.2754C10.7062 20.7423 11.3398 21.0043 12.0003 21.0038V21.0038C12.6609 21.004 13.2945 20.7418 13.7617 20.2748C14.2289 19.8078 14.4914 19.1743 14.4914 18.5137V18.0025" stroke="currentColor" stroke-width="1.5" stroke-linecap="round" stroke-linejoin="round"/>
<path fill-rule="evenodd" clip-rule="evenodd" d="M17.9494 18.0025C19.0837 18.0025 20.0032 17.083 20.0032 15.9486V15.9486C20.0028 15.3724 19.774 14.8199 19.367 14.412L18.0024 13.0484V8.99875C18.0024 5.68366 15.315 2.99625 11.9999 2.99625V2.99625C8.68483 2.99625 5.99742 5.68366 5.99742 8.99875V13.0484L4.63285 14.412C4.22583 14.8199 3.99704 15.3724 3.99658 15.9486V15.9486C3.99658 16.4934 4.21297 17.0158 4.59814 17.4009C4.98331 17.7861 5.50572 18.0025 6.05044 18.0025H17.9494Z" stroke="currentColor" stroke-width="1.5" stroke-linecap="round" stroke-linejoin="round"/>
</svg>
