<svg viewBox="0 0 28 28" fill="none" xmlns="http://www.w3.org/2000/svg">
<g id="Group">
<g id="Group_2">
<path id="Path" d="M9.3335 4.66666L7.5835 6.41666" stroke="currentColor" stroke-width="1.5" stroke-linecap="round" stroke-linejoin="round"/>
<path id="Path_2" d="M7.5835 2.91666L9.3335 4.66666" stroke="currentColor" stroke-width="1.5" stroke-linecap="round" stroke-linejoin="round"/>
<path id="Path_3" d="M7 4.66666C5.06683 4.66666 3.5 6.23349 3.5 8.16666" stroke="currentColor" stroke-width="1.5" stroke-linecap="round" stroke-linejoin="round"/>
<path id="Path_4" d="M7 4.66665H9.33333" stroke="currentColor" stroke-width="1.5" stroke-linecap="round" stroke-linejoin="round"/>
<path id="Path_5" d="M18.6665 23.3333L20.4165 21.5833" stroke="currentColor" stroke-width="1.5" stroke-linecap="round" stroke-linejoin="round"/>
<path id="Path_6" d="M20.4165 25.0833L18.6665 23.3333" stroke="currentColor" stroke-width="1.5" stroke-linecap="round" stroke-linejoin="round"/>
<path id="Path_7" d="M21 23.3333C22.9332 23.3333 24.5 21.7665 24.5 19.8333" stroke="currentColor" stroke-width="1.5" stroke-linecap="round" stroke-linejoin="round"/>
<path id="Path_8" d="M20.9998 23.3333H18.6665" stroke="currentColor" stroke-width="1.5" stroke-linecap="round" stroke-linejoin="round"/>
<path id="Path_9" fill-rule="evenodd" clip-rule="evenodd" d="M11.0832 23.3333C14.6123 23.3333 17.4998 20.4458 17.4998 16.9167C17.4998 13.3875 14.6123 10.5 11.0832 10.5C7.554 10.5 4.6665 13.3875 4.6665 16.9167C4.6665 18.3563 5.153 19.6852 5.9615 20.7573C7.134 22.3172 8.99367 23.3333 11.0832 23.3333Z" stroke="currentColor" stroke-width="1.5" stroke-linecap="round" stroke-linejoin="round"/>
<path id="Path_10" d="M21.4536 6.54614C23.9491 9.04164 23.9491 13.125 21.4536 15.6205C21.2541 15.82 21.0359 15.9868 20.8154 16.149" stroke="currentColor" stroke-width="1.5" stroke-linecap="round" stroke-linejoin="round"/>
<path id="Path_11" d="M21.4539 6.54616C18.9584 4.05065 14.875 4.05065 12.3795 6.54616C12.1812 6.74449 12.0109 6.96032 11.8452 7.17849" stroke="currentColor" stroke-width="1.5" stroke-linecap="round" stroke-linejoin="round"/>
</g>
</g>
</svg>
