<svg viewBox="0 0 28 28" fill="none" xmlns="http://www.w3.org/2000/svg">
<path d="M5.24609 4.66278L18.6684 4.66278C19.9576 4.66278 21.0027 5.70789 21.0027 6.99709V18.6686" stroke="currentColor" stroke-width="1.5" stroke-linecap="round" stroke-linejoin="round"/>
<path d="M10.4985 9.35204H17.5015" stroke="currentColor" stroke-width="1.5" stroke-linecap="round" stroke-linejoin="round"/>
<path d="M10.4985 14H17.5015" stroke="currentColor" stroke-width="1.5" stroke-linecap="round" stroke-linejoin="round"/>
<path d="M8.74779 23.3372L22.1701 23.3372C23.4593 23.3372 24.5044 22.2921 24.5044 21.0029L24.5044 19.8358C24.5044 19.1912 23.9818 18.6686 23.3372 18.6686H11.6657C11.0211 18.6686 10.4985 19.1912 10.4985 19.8358V21.5865C10.4985 22.5534 9.7147 23.3372 8.74779 23.3372V23.3372C7.78089 23.3372 6.99706 22.5534 6.99706 21.5865L6.99706 6.41351C6.99706 5.44661 6.21324 4.66278 5.24633 4.66278V4.66278C4.27943 4.66278 3.49561 5.44661 3.49561 6.41351L3.49561 9.33139C3.49561 9.97599 4.01816 10.4985 4.66276 10.4985H6.99706" stroke="currentColor" stroke-width="1.5" stroke-linecap="round" stroke-linejoin="round"/>
</svg>
